<svg width="30" height="40" viewBox="0 0 30 40" fill="none" xmlns="http://www.w3.org/2000/svg">
<path d="M26.0001 13.6666H24.1668V9.99992C24.1668 4.93992 20.0601 0.833252 15.0001 0.833252C9.9401 0.833252 5.83344 4.93992 5.83344 9.99992V13.6666H4.0001C1.97427 13.6666 0.333435 15.3074 0.333435 17.3333V35.6666C0.333435 37.6924 1.97427 39.3333 4.0001 39.3333H26.0001C28.0259 39.3333 29.6668 37.6924 29.6668 35.6666V17.3333C29.6668 15.3074 28.0259 13.6666 26.0001 13.6666ZM15.0001 30.1666C12.9743 30.1666 11.3334 28.5258 11.3334 26.4999C11.3334 24.4741 12.9743 22.8333 15.0001 22.8333C17.0259 22.8333 18.6668 24.4741 18.6668 26.4999C18.6668 28.5258 17.0259 30.1666 15.0001 30.1666ZM20.6834 13.6666H9.31677V9.99992C9.31677 6.86492 11.8651 4.31659 15.0001 4.31659C18.1351 4.31659 20.6834 6.86492 20.6834 9.99992V13.6666Z" fill="#F78C12"/>
</svg>
